<svg width="13" height="16" viewBox="0 0 13 16" fill="none" xmlns="http://www.w3.org/2000/svg">
<path d="M12.1784 15.2348H8.15918C7.98261 14.8514 7.90362 14.4106 7.88504 13.7876L7.82463 12.1584C7.76423 10.5292 7.02544 10.2848 5.93353 10.2848H3.90302V15.2348H0V0.902344H6.83029C10.6172 0.902344 12.0018 2.91492 12.0018 5.14792C12.0018 6.53756 11.3188 7.82657 9.83655 8.5118C11.4582 9.13474 11.6905 10.3423 11.7509 11.8709L11.8299 13.7828C11.8485 14.3866 11.9832 14.8898 12.1784 15.2348ZM6.24484 7.34259C7.39716 7.34259 7.98261 6.73882 7.98261 5.6942C7.98261 4.66874 7.39716 4.04101 6.24484 4.04101H3.90302V7.34259H6.24484Z" fill="white"/>
</svg>
