<svg width="14" height="16" viewBox="0 0 14 16" fill="none" xmlns="http://www.w3.org/2000/svg">
<path d="M0.859131 10.5242H4.60881C4.64598 12.2157 5.71931 12.4984 7.22476 12.4984C8.55364 12.4984 9.17626 12.0144 9.17626 11.2094C9.17626 10.3852 8.68839 10.1025 6.98779 9.81975L5.89588 9.63766C2.75488 9.11535 1.07286 7.60591 1.07286 5.00873C1.07286 2.53134 2.87104 0.581055 6.77405 0.581055C10.4447 0.581055 12.5496 2.17195 12.7076 5.31061H9.03687C8.97647 4.18453 8.35384 3.63826 6.82981 3.63826C5.5985 3.63826 5.05487 4.07911 5.05487 4.82664C5.05487 5.69396 5.70072 5.99585 7.08536 6.23544L8.23768 6.4367C11.6342 7.02131 13.1954 8.34865 13.1954 10.9075C13.1954 14.1085 10.6957 15.5556 7.06678 15.5556C2.87104 15.5556 0.859131 13.4616 0.859131 10.5242Z" fill="white"/>
</svg>
